<?xml version="1.0" encoding="UTF-8" standalone="no"?>
<!-- Created with Inkscape (http://www.inkscape.org/) -->

<svg
   width="56.496597mm"
   height="68.757904mm"
   viewBox="0 0 56.496597 68.757904"
   version="1.1"
   id="svg1"
   xml:space="preserve"
   sodipodi:docname="cptain.svg"
   inkscape:version="1.4 (e7c3feb1, 2024-10-09)"
   inkscape:export-filename="cptain-460x560.png"
   inkscape:export-xdpi="206.8089"
   inkscape:export-ydpi="206.8089"
   xmlns:inkscape="http://www.inkscape.org/namespaces/inkscape"
   xmlns:sodipodi="http://sodipodi.sourceforge.net/DTD/sodipodi-0.dtd"
   xmlns:xlink="http://www.w3.org/1999/xlink"
   xmlns="http://www.w3.org/2000/svg"
   xmlns:svg="http://www.w3.org/2000/svg"><sodipodi:namedview
     id="namedview1"
     pagecolor="#ffffff"
     bordercolor="#000000"
     borderopacity="0.25"
     inkscape:showpageshadow="2"
     inkscape:pageopacity="0.0"
     inkscape:pagecheckerboard="0"
     inkscape:deskcolor="#d1d1d1"
     inkscape:document-units="mm"
     inkscape:zoom="2.6000001"
     inkscape:cx="113.84615"
     inkscape:cy="154.99999"
     inkscape:window-width="1728"
     inkscape:window-height="1331"
     inkscape:window-x="1712"
     inkscape:window-y="25"
     inkscape:window-maximized="0"
     inkscape:current-layer="g1" /><defs
     id="defs1"><linearGradient
       id="linearGradient9"
       inkscape:collect="always"><stop
         style="stop-color:#616161;stop-opacity:1;"
         offset="0"
         id="stop9" /><stop
         style="stop-color:#7a7a7a;stop-opacity:1;"
         offset="0.20714284"
         id="stop12" /><stop
         style="stop-color:#3f3f3f;stop-opacity:1;"
         offset="0.37142855"
         id="stop11" /><stop
         style="stop-color:#979797;stop-opacity:1;"
         offset="0.58571428"
         id="stop13" /><stop
         style="stop-color:#000000;stop-opacity:1;"
         offset="1"
         id="stop10" /></linearGradient><linearGradient
       id="linearGradient156"><stop
         style="stop-color:#000000;stop-opacity:1;"
         offset="0"
         id="stop156" /><stop
         style="stop-color:#000000;stop-opacity:1;"
         offset="0.89285713"
         id="stop158" /><stop
         style="stop-color:#000000;stop-opacity:0;"
         offset="1"
         id="stop157" /></linearGradient><filter
       style="color-interpolation-filters:sRGB"
       id="filter83"
       x="-0.81730253"
       y="-0.76047438"
       width="2.6305816"
       height="2.5194602"><feGaussianBlur
         stdDeviation="0.2715905"
         id="feGaussianBlur83" /></filter><filter
       style="color-interpolation-filters:sRGB"
       id="filter84"
       x="-0.11726498"
       y="-0.24310109"
       width="1.235396"
       height="1.5855989"><feGaussianBlur
         stdDeviation="0.40205977"
         id="feGaussianBlur84" /></filter><filter
       style="color-interpolation-filters:sRGB"
       id="filter85"
       x="-0.3692928"
       y="-0.62328464"
       width="1.7385856"
       height="2.2465694"><feGaussianBlur
         stdDeviation="0.355 0.421"
         id="feGaussianBlur85" /></filter><linearGradient
       xlink:href="#linearGradient156"
       id="linearGradient157"
       x1="94.855751"
       y1="142.36194"
       x2="94.855751"
       y2="149.53877"
       gradientUnits="userSpaceOnUse"
       gradientTransform="translate(0.02359861)" /><filter
       style="color-interpolation-filters:sRGB"
       id="filter158"
       x="-0.58428073"
       y="-1.0231333"
       width="2.1685581"
       height="3.0463026"><feGaussianBlur
         stdDeviation="0.21487248"
         id="feGaussianBlur158" /></filter><filter
       style="color-interpolation-filters:sRGB"
       id="filter159"
       x="-0.032221217"
       y="-0.20828743"
       width="1.0657928"
       height="1.3161956"><feGaussianBlur
         stdDeviation="0.0028487789"
         id="feGaussianBlur159" /></filter><filter
       inkscape:collect="always"
       style="color-interpolation-filters:sRGB"
       id="filter2"
       x="-0.057570361"
       y="-0.34874877"
       width="1.1164911"
       height="1.5971183"><feGaussianBlur
         inkscape:collect="always"
         stdDeviation="0.31407787"
         id="feGaussianBlur2" /></filter><filter
       inkscape:collect="always"
       style="color-interpolation-filters:sRGB"
       id="filter3"
       x="-0.032384525"
       y="-0.065406042"
       width="1.0647691"
       height="1.1308121"><feGaussianBlur
         inkscape:collect="always"
         stdDeviation="0.25561173"
         id="feGaussianBlur3" /></filter><filter
       inkscape:collect="always"
       style="color-interpolation-filters:sRGB"
       id="filter9"
       x="-0.035628919"
       y="-0.3096735"
       width="1.0712578"
       height="1.619347"><feGaussianBlur
         inkscape:collect="always"
         stdDeviation="0.75122915"
         id="feGaussianBlur9" /></filter><linearGradient
       inkscape:collect="always"
       xlink:href="#linearGradient9"
       id="linearGradient10"
       x1="67.653717"
       y1="123.42057"
       x2="121.86317"
       y2="123.42057"
       gradientUnits="userSpaceOnUse" /><linearGradient
       inkscape:collect="always"
       xlink:href="#linearGradient1"
       id="linearGradient2"
       x1="103.37025"
       y1="117.31583"
       x2="101.36395"
       y2="115.96257"
       gradientUnits="userSpaceOnUse"
       gradientTransform="translate(-2.6366667e-6)" /><linearGradient
       id="linearGradient1"
       inkscape:collect="always"><stop
         style="stop-color:#00e7ff;stop-opacity:1;"
         offset="0"
         id="stop1" /><stop
         style="stop-color:#00e5fe;stop-opacity:1;"
         offset="0.46613544"
         id="stop3" /><stop
         style="stop-color:#00a5ee;stop-opacity:1;"
         offset="0.59362549"
         id="stop4" /><stop
         style="stop-color:#00a3ee;stop-opacity:1;"
         offset="1"
         id="stop2" /></linearGradient></defs><g
     id="layer1"
     style="display:inline"
     transform="translate(-66.030499,-104.65258)"><g
       id="g1"><path
         style="display:inline;mix-blend-mode:normal;fill:#ffffff;fill-opacity:1;stroke:none;stroke-width:3;stroke-linecap:butt;stroke-linejoin:miter;stroke-miterlimit:19.1;stroke-dasharray:none;stroke-opacity:1;paint-order:markers stroke fill"
         d="m 104.82637,140.90472 -2.06164,1.96011 -3.935138,3.92091 -3.934679,0.69532 -4.191106,-0.81384 -4.146264,-3.9791 -1.933672,-1.15321 1.049959,5.94718 9.107201,4.04327 9.684869,-4.8881 c 3.51902,-2.83186 -1.31259,-3.06121 0.36047,-5.73254 z"
         id="path23-5-3"
         sodipodi:nodetypes="ccccccccccc" /><path
         style="mix-blend-mode:normal;fill:#909090;fill-opacity:1;stroke:none;stroke-width:3;stroke-linecap:butt;stroke-linejoin:miter;stroke-miterlimit:19.1;stroke-dasharray:none;stroke-opacity:1;paint-order:markers stroke fill;filter:url(#filter3)"
         d="m 104.2687,142.14598 -1.50397,0.71885 -3.935141,3.92091 -3.934679,0.69532 -4.191106,-0.81384 -4.146264,-3.9791 -1.232089,-0.52358 c 1.564437,2.77477 3.016906,5.5693 6.032993,8.0879 l 3.422584,1.27292 3.604485,-1.29023 c 3.519027,-2.83186 4.210127,-5.41781 5.883187,-8.08915 z"
         id="path23-5" /><path
         style="opacity:1;fill:#00a3ee;fill-opacity:1;stroke:#000000;stroke-width:1;stroke-linecap:butt;stroke-linejoin:round;stroke-miterlimit:19.1;stroke-dasharray:none;stroke-opacity:1"
         d="m 114.02474,115.58164 c -6.78898,-4.76068 -8.01421,-4.90239 -14.400024,-6.43772 h -9.681838 l -18.905624,14.89587 v 21.33671 c 0.03504,1.84908 1.69545,3.51987 4.126616,4.97876 l 2.526096,-0.477 6.953959,2.82249 v 0 L 84.4796,140.03587 h 20.48252 l -0.2089,12.51448 7.07903,-2.87942 2.41406,0.14251 c 2.85066,-1.50929 4.51284,-2.92945 4.53584,-4.43694 v -13.2919 -3.84701 -4.29135 -5.3788 z"
         id="path26"
         sodipodi:nodetypes="cccccccccccccccccccc" /><path
         style="opacity:1;fill:#848484;fill-opacity:1;stroke:#000000;stroke-width:1;stroke-linecap:butt;stroke-linejoin:round;stroke-miterlimit:19.1;stroke-dasharray:none;stroke-opacity:1"
         d="m 109.25978,126.23808 c 0,0 -1.49329,-2.96446 -2.82971,-3.81193 -1.67528,-1.06235 -3.85315,-1.07212 -5.83483,-1.171 -1.948383,-0.0972 -3.861031,0.73038 -5.811445,0.69129 -1.961328,-0.0393 -3.851118,-1.00259 -5.811443,-0.9286 -1.989976,0.0751 -4.133043,0.27611 -5.834827,1.31476 -1.483248,0.90527 -3.344209,3.99902 -3.344209,3.99902 z"
         id="path158" /><path
         style="opacity:1;fill:#ffffff;fill-opacity:1;stroke:none;stroke-width:1;stroke-linecap:butt;stroke-linejoin:miter;stroke-miterlimit:19.1;stroke-dasharray:none;stroke-opacity:1;paint-order:markers stroke fill"
         d="m 106.40668,122.54308 c -0.18149,6.11156 0.0174,10.2587 -0.74836,16.37026 -1.49786,3.24228 -4.08425,5.39603 -6.541824,7.67859 l -4.309313,0.92749 -4.028224,-0.94171 c -1.172626,-0.97092 -3.442751,-2.96536 -3.442751,-2.96536 l -1.339934,-1.40663 c 0,0 -1.692747,-2.05915 -2.274098,-3.24561 -0.770294,-5.82617 -0.246751,-10.38935 -0.561266,-16.55735 l 5.811442,-1.38492 5.811443,0.9286 5.811445,-0.69129 z"
         id="path23" /><path
         style="opacity:1;fill:none;fill-opacity:1;stroke:#909090;stroke-width:2.2;stroke-linecap:butt;stroke-linejoin:round;stroke-miterlimit:19.1;stroke-dasharray:none;stroke-opacity:1;filter:url(#filter2)"
         d="m 109.42101,126.52455 c 0,0 -1.49329,-2.96446 -2.82971,-3.81193 -1.67528,-1.06235 -3.85315,-1.07212 -5.83483,-1.171 -1.948394,-0.0972 -3.861034,0.73038 -5.811454,0.69129 -1.96132,-0.0393 -3.851115,-1.00259 -5.81144,-0.9286 -1.989976,0.0751 -4.133043,0.27611 -5.834827,1.31476 -1.483248,0.90527 -3.344209,3.99902 -3.344209,3.99902"
         id="path24-1" /><path
         style="opacity:1;fill:#c6c6c6;fill-opacity:1;stroke:none;stroke-width:1;stroke-linecap:butt;stroke-linejoin:round;stroke-miterlimit:19.1;stroke-dasharray:none;stroke-opacity:1"
         d="m 109.25978,126.23808 c 0,0 -1.49329,-2.96446 -2.82971,-3.81193 -1.67528,-1.06235 -3.85315,-1.07212 -5.83483,-1.171 -1.948383,-0.0972 -3.861031,0.73038 -5.811445,0.69129 -1.961328,-0.0393 -3.851118,-1.00259 -5.811443,-0.9286 -1.989976,0.0751 -4.133043,0.27611 -5.834827,1.31476 -1.483248,0.90527 -3.344209,3.99902 -3.344209,3.99902 l -10.336649,-2.75956 c 4.421014,-9.54739 11.099401,-13.19649 18.225243,-15.67643 0.07212,6.50041 2.442377,9.65061 6.856676,9.7233 4.4143,0.0727 6.718204,-4.79439 7.139654,-9.57785 9.50146,2.25774 14.52537,8.37307 18.33914,15.53098"
         id="path24" /><path
         style="fill:none;fill-opacity:1;stroke:#000000;stroke-width:1;stroke-linecap:butt;stroke-linejoin:miter;stroke-miterlimit:19.1;stroke-dasharray:none;stroke-opacity:1;paint-order:markers stroke fill"
         d="m 106.40668,122.54308 c -0.17449,5.87568 0.003,9.93564 -0.66393,15.67116 -0.0268,0.23026 0.005,0.47876 -0.0844,0.6991 -0.47999,1.18485 -1.12429,2.25975 -1.97096,3.11902 -1.3286,1.34837 -2.33501,2.80106 -4.570864,4.55957 -1.154919,0.90835 -2.840039,0.94046 -4.309313,0.92749 -1.378891,-0.0122 -4.028224,-0.94171 -4.028224,-0.94171 -1.482441,-0.34656 -2.345293,-1.92153 -3.442751,-2.96536 -0.469217,-0.44629 -0.955867,-0.88526 -1.339934,-1.40663 -0.869427,-1.18025 -1.891749,-2.54357 -2.141806,-3.84092 -1.112262,-5.77066 -0.379043,-9.79404 -0.693558,-15.96204"
         id="path23-1" /><path
         id="path1"
         style="opacity:1;fill:#ffffff;fill-opacity:1;stroke:#000000;stroke-width:1;stroke-linecap:butt;stroke-linejoin:round;stroke-miterlimit:19.1;stroke-dasharray:none"
         d="m 87.674821,107.86259 c -7.263731,1.56817 -15.85153,8.29341 -18.211306,15.74885 l -2.234217,-1.11004 c 0,0 5.406246,-14.77336 22.182047,-17.34883 0.0091,3.71057 1.244891,10.29834 5.114126,10.32853 3.869235,0.0302 5.584259,-6.60667 5.632179,-10.24467 16.35217,2.79583 21.86946,17.26497 21.86946,17.26497 l -2.01122,1.11004 c -2.01809,-6.27574 -11.31277,-14.74103 -18.25443,-15.74885 -0.007,2.07593 -1.06581,9.53023 -7.199494,9.67391 -6.133681,0.14368 -6.86781,-7.49062 -6.887145,-9.67391 z" /><path
         id="path3"
         style="opacity:1;fill:#00a3ee;fill-opacity:1;stroke:#000000;stroke-width:0.6;stroke-linecap:butt;stroke-linejoin:round;stroke-miterlimit:19.1;stroke-dasharray:none"
         d="m 86.634766,115.7832 c -0.950385,0.36782 -0.644903,1.90678 0.376953,1.87696 1.026124,0.0369 1.352083,-1.55193 0.371093,-1.88868 -0.244698,-0.12227 -0.497414,-0.039 -0.748046,0.0117 z" /><path
         id="path4-4"
         style="display:inline;fill:url(#linearGradient2);fill-opacity:1;stroke:#000000;stroke-width:0.6;stroke-linecap:butt;stroke-linejoin:round;stroke-miterlimit:19.1;stroke-dasharray:none"
         d="m 102.00391,115.7793 c -0.91044,0.34961 -0.61653,1.81769 0.35742,1.79297 0.97493,0.0322 1.29244,-1.46955 0.36328,-1.80274 -0.23783,-0.11765 -0.47738,-0.0427 -0.7207,0.01 z" /><path
         id="path5"
         style="opacity:1;fill:#00a3ee;fill-opacity:1;stroke:#000000;stroke-width:1;stroke-linecap:butt;stroke-linejoin:round;stroke-miterlimit:19.1;stroke-dasharray:none"
         d="m 105.83789,113.08789 c -1.13449,0.3221 -1.06692,2.13768 0.0988,2.3457 1.14724,0.3564 2.04414,-1.29065 1.13716,-2.0668 -0.32593,-0.32902 -0.80107,-0.40924 -1.23593,-0.2789 z" /><path
         id="path6"
         style="opacity:1;fill:#00a3ee;fill-opacity:1;stroke:#000000;stroke-width:1;stroke-linecap:butt;stroke-linejoin:round;stroke-miterlimit:19.1;stroke-dasharray:none"
         d="m 110.10156,117.25977 c -1.22606,0.36482 -1.51983,2.15132 -0.47066,2.8848 0.9875,0.80581 2.64357,0.0434 2.63721,-1.24252 0.0873,-1.12586 -1.10375,-2.02439 -2.16655,-1.64228 z" /><path
         id="path7"
         style="opacity:1;fill:#000000;fill-opacity:1;stroke:none;stroke-width:1;stroke-linecap:butt;stroke-linejoin:round;stroke-miterlimit:19.1;stroke-dasharray:none"
         d="m 82.035651,114.54731 c -3e-6,0.2834 -0.295891,0.39739 -0.579291,0.39739 -0.2834,0 -0.513143,-0.22974 -0.513146,-0.51314 -2e-6,-0.2834 0.229742,-0.51315 0.513146,-0.51315 0.283404,0 0.579294,0.3455 0.579291,0.6289 z" /><path
         id="path8"
         style="opacity:1;fill:#000000;fill-opacity:1;stroke:none;stroke-width:1;stroke-linecap:butt;stroke-linejoin:round;stroke-miterlimit:19.1;stroke-dasharray:none"
         d="m 81.794435,116.65109 c 2e-6,0.2834 -0.229742,0.51315 -0.513146,0.51315 -0.283404,0 -0.496612,-0.24628 -0.49661,-0.52969 4e-6,-0.2834 0.21321,-0.4966 0.49661,-0.4966 0.2834,0 0.513143,0.22974 0.513146,0.51314 z" /><path
         id="path10"
         style="opacity:1;fill:#00a3ee;fill-opacity:1;stroke:#000000;stroke-width:1;stroke-linecap:butt;stroke-linejoin:round;stroke-miterlimit:19.1;stroke-dasharray:none"
         d="m 119.02734,128.71875 c -1.22308,0.35009 -1.40052,2.22554 -0.23976,2.76266 1.10128,0.68209 2.56914,-0.54338 2.16737,-1.75139 -0.21823,-0.81114 -1.13649,-1.28136 -1.92761,-1.01127 z" /><path
         id="path11"
         style="opacity:1;fill:#00a3ee;fill-opacity:1;stroke:#000000;stroke-width:1;stroke-linecap:butt;stroke-linejoin:round;stroke-miterlimit:19.1;stroke-dasharray:none"
         d="m 114.2793,135.23438 c -1.20584,0.34531 -1.37721,2.19669 -0.23001,2.72167 1.06872,0.65848 2.51975,-0.51013 2.12584,-1.699 -0.20799,-0.8075 -1.10725,-1.26778 -1.89583,-1.02267 z" /><path
         id="path17"
         style="opacity:1;fill:#00a3ee;fill-opacity:1;stroke:#000000;stroke-width:1.7;stroke-linecap:butt;stroke-linejoin:round;stroke-miterlimit:19.1;stroke-dasharray:none;stroke-opacity:1;paint-order:normal"
         d="m 99.71875,124.83984 c -2.39074,0.20739 -4.004298,3.13485 -2.832031,5.25391 1.016873,2.08804 4.191411,2.7031 5.798191,0.95089 1.55273,-1.49771 1.39408,-4.37178 -0.46421,-5.55831 -0.72686,-0.50138 -1.62281,-0.73562 -2.50195,-0.64649 z" /><path
         id="path12"
         style="opacity:1;fill:#00a3ee;fill-opacity:1;stroke:#000000;stroke-width:0.8;stroke-linecap:butt;stroke-linejoin:round;stroke-miterlimit:19.1;stroke-dasharray:none"
         d="m 101.81641,134.01758 c -1.47591,-0.0248 -2.103018,2.07413 -0.9961,2.96484 0.91196,0.83 2.51323,0.27332 2.72657,-0.94336 0.29416,-1.05408 -0.66978,-2.10728 -1.73047,-2.02148 z" /><path
         id="path13"
         style="opacity:1;fill:#00a3ee;fill-opacity:1;stroke:#000000;stroke-width:1;stroke-linecap:butt;stroke-linejoin:round;stroke-miterlimit:19.1;stroke-dasharray:none"
         d="m 75.501953,135.41211 c -1.202607,0.34983 -1.375933,2.19863 -0.227709,2.72294 1.115713,0.68557 2.580114,-0.60102 2.108568,-1.80107 -0.252649,-0.76059 -1.124469,-1.1797 -1.880859,-0.92187 z" /><path
         id="path14"
         style="opacity:1;fill:#00a3ee;fill-opacity:1;stroke:#000000;stroke-width:1;stroke-linecap:butt;stroke-linejoin:round;stroke-miterlimit:19.1;stroke-dasharray:none"
         d="m 70.501803,130.04904 a 1.985652,1.985652 0 0 1 -1.985652,1.98565 1.985652,1.985652 0 0 1 -1.985652,-1.98565 1.985652,1.985652 0 0 1 1.985652,-1.98565 1.985652,1.985652 0 0 1 1.985652,1.98565 z" /><path
         id="path15"
         style="opacity:1;fill:#00a3ee;fill-opacity:1;stroke:#000000;stroke-width:1;stroke-linecap:butt;stroke-linejoin:round;stroke-miterlimit:19.1;stroke-dasharray:none"
         d="m 87.251953,134.50977 c -1.119474,0.31424 -1.201818,2.06435 -0.09778,2.4523 0.907596,0.4734 1.953423,-0.45298 1.820562,-1.36436 -0.02105,-0.14439 -0.07168,-0.28839 -0.15713,-0.4264 -0.255517,-0.58081 -0.974956,-0.84033 -1.565652,-0.66154 z" /><path
         id="path18-9"
         style="fill:#00a3ee;fill-opacity:1;stroke:none;stroke-width:1;stroke-linecap:butt;stroke-linejoin:round;stroke-miterlimit:19.1;stroke-dasharray:none"
         d="m 87.03784,126.98376 c -0.702357,0.28852 0.164512,1.91671 0.803105,2.41383 0.510896,0.48439 1.216429,0.57035 1.836598,0.3698 0.620169,-0.20055 1.154973,-0.68762 1.32441,-1.34929 0.192553,-0.63144 0.561839,-1.24246 0.124367,-1.68151 -0.707382,-0.70993 -2.908367,-0.23762 -4.08848,0.24717 z" /><path
         id="path16"
         style="display:inline;fill:none;stroke:#000000;stroke-width:1;stroke-linecap:round;stroke-linejoin:round;stroke-miterlimit:19.1;stroke-dasharray:none"
         d="m 91.11675,128.96508 a 2.6549728,2.6549728 0 0 1 -3.684168,0.53715" /><path
         id="path18"
         style="opacity:1;fill:#00a3ee;fill-opacity:1;stroke:#000000;stroke-width:1;stroke-linecap:butt;stroke-linejoin:round;stroke-miterlimit:19.1;stroke-dasharray:none"
         d="m 99.925781,126.84961 c -1.548356,0.0427 -1.942528,2.54988 -0.475479,3.06322 1.278328,0.70985 2.906698,-1.05364 2.039418,-2.26348 -0.29535,-0.554 -0.95166,-0.84736 -1.563939,-0.79974 z" /><path
         id="path18-7"
         style="fill:#00a3ee;fill-opacity:0.584314;stroke:#000000;stroke-width:0.7;stroke-linecap:butt;stroke-linejoin:round;stroke-miterlimit:19.1;stroke-dasharray:none;filter:url(#filter158)"
         d="m 88.530763,127.45037 c -0.188437,0 -0.181013,-0.19551 -0.177499,-0.005 0.0035,0.19065 0.06883,0.38131 0.19331,0.52431 0.124482,0.14299 0.308129,0.23832 0.548308,0.23832 0.240179,0 0.423826,-0.0953 0.548308,-0.23832 0.124481,-0.143 0.189796,-0.33366 0.19331,-0.52431 0.0035,-0.19066 0.01094,0.005 -0.177499,0.005 z" /><path
         style="opacity:1;fill:none;stroke:url(#linearGradient157);stroke-width:1;stroke-linecap:butt;stroke-linejoin:round;stroke-miterlimit:19.1;stroke-dasharray:none"
         d="m 94.784009,141.65353 v 8.42831"
         id="path57" /><path
         id="path19"
         style="opacity:1;fill:#00a3ee;fill-opacity:1;stroke:#000000;stroke-width:0.8;stroke-linecap:butt;stroke-linejoin:round;stroke-miterlimit:19.1;stroke-dasharray:none"
         d="m 94.570312,143.24219 c -1.61547,0.051 -2.212263,2.44416 -0.882694,3.30702 1.117268,0.89948 2.906757,-0.0382 2.921757,-1.43983 0.03708,-1.07243 -0.971068,-1.99817 -2.039063,-1.86719 z" /><path
         id="path20"
         style="opacity:1;fill:#ffffff;fill-opacity:1;stroke:#000000;stroke-width:0.6;stroke-linecap:butt;stroke-linejoin:round;stroke-miterlimit:19.1;stroke-dasharray:none"
         d="m 88.520579,142.20794 c 10e-7,0.79614 -0.644412,1.3252 -1.29789,1.17533 -0.467358,-0.10742 -0.931343,-0.55917 -0.986544,-1.04437 -0.06697,-0.58767 0.369755,-1.27687 1.138518,-1.27687 0.63287,0 1.145914,0.51304 1.145918,1.14591 z" /><path
         style="opacity:1;fill:none;stroke:#000000;stroke-width:1;stroke-linecap:butt;stroke-linejoin:round;stroke-miterlimit:19.1;stroke-dasharray:none;stroke-opacity:1"
         d="m 70.485655,130.02662 8.652851,-0.0468"
         id="path27" /><path
         style="opacity:1;fill:none;stroke:#000000;stroke-width:1;stroke-linecap:butt;stroke-linejoin:round;stroke-miterlimit:19.1;stroke-dasharray:none;stroke-opacity:1"
         d="m 118.02956,130.14356 -7.88111,-0.0234"
         id="path28" /><path
         style="opacity:1;fill:none;stroke:#000000;stroke-width:1;stroke-linecap:butt;stroke-linejoin:round;stroke-miterlimit:19.1;stroke-dasharray:none;stroke-opacity:1"
         d="m 114.91921,130.02662 -0.11689,4.98124"
         id="path29" /><path
         style="opacity:1;fill:none;stroke:#000000;stroke-width:1;stroke-linecap:butt;stroke-linejoin:round;stroke-miterlimit:19.1;stroke-dasharray:none;stroke-opacity:1"
         d="m 113.2588,136.69166 -7.36661,0.0702"
         id="path30" /><path
         style="opacity:1;fill:none;stroke:#000000;stroke-width:1;stroke-linecap:butt;stroke-linejoin:round;stroke-miterlimit:19.1;stroke-dasharray:none;stroke-opacity:1"
         d="m 75.864454,130.02662 -0.04677,5.27357"
         id="path31" /><path
         style="opacity:1;fill:none;stroke:#000000;stroke-width:1;stroke-linecap:butt;stroke-linejoin:round;stroke-miterlimit:19.1;stroke-dasharray:none;stroke-opacity:1"
         d="m 77.519021,136.76182 h 5.82898"
         id="path32" /><path
         style="opacity:1;fill:#fdfeff;fill-opacity:1;stroke:#000000;stroke-width:1;stroke-linecap:butt;stroke-linejoin:round;stroke-miterlimit:19.1;stroke-dasharray:none;stroke-opacity:1"
         d="m 81.267814,151.22859 c -0.831468,-2.78383 -1.241397,-7.43151 -2.363167,-8.15253 -0.796027,0.0184 -0.852209,6.43239 -1.964434,9.21411 -0.335613,0.83938 -2.291834,1.44994 -2.291834,1.44994 l 2.291835,-11.55272 c 0.215591,-1.08676 2.448557,-1.13327 3.367597,-0.5145 1.647416,1.10918 4.336114,11.02786 4.336114,11.02786 z m 3.376111,1.47216 -0.09154,-12.20886 c 0.03696,2.0492 0.128089,4.10742 0.900367,6.27917 0.71672,2.01551 5.710192,3.28994 9.307656,4.81753 v 2.89988 -2.89988 c 4.536323,-1.53493 9.021462,-3.90117 9.401212,-4.81753 0.78666,-1.89828 0.69931,-5.97163 0.60803,-5.98684 l 0.0572,11.74245 -9.874393,4.31822 z m 20.182925,-0.17408 c 2.10414,-1.81363 3.00968,-7.22305 4.48308,-10.92892 0.38862,-0.97746 2.74012,-0.94953 2.98774,0.0728 l 2.85545,11.78894 c 0,0 -2.0541,-0.14824 -2.38538,-0.93545 -1.10873,-2.63461 -1.2217,-8.91291 -2.0112,-9.4012 -0.47264,-0.0455 -1.73012,5.19573 -2.57247,7.81095 z"
         id="path40" /><path
         style="opacity:1;fill:none;stroke:#000000;stroke-width:1;stroke-linecap:butt;stroke-linejoin:round;stroke-miterlimit:19.1;stroke-dasharray:none;stroke-opacity:1"
         d="m 90.223511,149.99834 1.730568,5.79975 m 5.846522,-0.37418 1.590254,-5.65943"
         id="path35" /><path
         style="opacity:1;fill:none;stroke:#000000;stroke-width:1;stroke-linecap:butt;stroke-linejoin:round;stroke-miterlimit:19.1;stroke-dasharray:none;stroke-opacity:1"
         d="m 105.47124,139.9891 5.00835,0.89668"
         id="path38" /><path
         style="opacity:1;fill:none;stroke:#000000;stroke-width:1;stroke-linecap:butt;stroke-linejoin:round;stroke-miterlimit:19.1;stroke-dasharray:none;stroke-opacity:1"
         d="m 84.143129,140.03587 -5.879593,1.28458"
         id="path39" /><path
         style="opacity:1;fill:#ffffff;fill-opacity:1;stroke:#000000;stroke-width:1;stroke-linecap:butt;stroke-linejoin:round;stroke-miterlimit:19.1;stroke-dasharray:none;stroke-opacity:1"
         d="m 83.207684,133.7684 c -1.065145,0.86026 -4.159496,-0.70384 -4.092564,-3.81195 0.02635,-1.22361 -0.07821,-2.596 0.584652,-3.62486 0.929646,-1.44295 2.939997,-0.65749 3.53531,-0.17387 z"
         id="path45" /><path
         style="opacity:1;fill:none;stroke:#000000;stroke-width:1;stroke-linecap:round;stroke-linejoin:round;stroke-miterlimit:19.1;stroke-dasharray:none;stroke-opacity:1"
         d="m 81.196481,127.96865 c -0.343454,3.15581 0.51925,4.17235 1.96443,4.06918"
         id="path42" /><path
         style="opacity:1;fill:#ffffff;fill-opacity:1;stroke:#000000;stroke-width:1;stroke-linecap:round;stroke-linejoin:round;stroke-miterlimit:19.1;stroke-dasharray:none;stroke-opacity:1"
         d="m 106.17282,134.09718 c 0.32513,1.04041 2.67688,0.32998 3.97563,-4.0004 0.38165,-1.27253 -0.17247,-2.7319 -0.79513,-3.90548 -0.76787,-1.44727 -2.26581,-0.50578 -2.99341,-0.0468 z"
         id="path44" /><path
         style="opacity:1;fill:none;stroke:#000000;stroke-width:1;stroke-linecap:round;stroke-linejoin:round;stroke-miterlimit:19.1;stroke-dasharray:none;stroke-opacity:1"
         d="m 108.13725,128.10897 c 0.42177,2.72086 -0.70384,4.39873 -1.82411,3.64822"
         id="path43" /><path
         style="opacity:1;fill:none;stroke:#000000;stroke-width:1;stroke-linecap:butt;stroke-linejoin:round;stroke-miterlimit:19.1;stroke-dasharray:none;stroke-opacity:1"
         d="m 83.348001,133.00812 2.966995,2.40014"
         id="path46" /><path
         style="opacity:1;fill:none;stroke:#000000;stroke-width:1;stroke-linecap:butt;stroke-linejoin:round;stroke-miterlimit:19.1;stroke-dasharray:none;stroke-opacity:1"
         d="m 89.012134,135.6478 3.6903,-0.61655"
         id="path47" /><path
         style="opacity:1;fill:none;stroke:#000000;stroke-width:1;stroke-linecap:round;stroke-linejoin:round;stroke-miterlimit:19.1;stroke-dasharray:none;stroke-opacity:1"
         d="m 96.859969,134.64669 c 10e-7,0.7775 -0.227201,1.73876 -0.904962,2.11975 -0.677751,0.381 -1.508335,0.36671 -2.17257,-0.0374 -0.664227,-0.40412 -0.811171,-1.13517 -0.784371,-1.91221 v -7.05486 c -2.384996,-2.07655 -5.488705,-1.92738 -7.708414,0.47107"
         id="path48" /><path
         style="opacity:1;fill:none;stroke:#000000;stroke-width:0.8;stroke-linecap:round;stroke-linejoin:round;stroke-miterlimit:19.1;stroke-dasharray:none;stroke-opacity:1"
         d="m 105.98573,135.03125 -2.35515,0.45166 m -3.46398,-0.1134 -2.498953,-0.15418"
         id="path49" /><path
         style="opacity:1;fill:none;stroke:#000000;stroke-width:1;stroke-linecap:butt;stroke-linejoin:round;stroke-miterlimit:19.1;stroke-dasharray:none;stroke-opacity:1"
         d="m 101.21497,134.04903 -0.77928,-2.04808"
         id="path50" /><path
         style="opacity:1;fill:none;stroke:#000000;stroke-width:1;stroke-linecap:butt;stroke-linejoin:round;stroke-miterlimit:19.1;stroke-dasharray:none;stroke-opacity:1"
         d="m 102.89662,130.77849 3.08911,1.8206"
         id="path51" /><path
         style="opacity:1;fill:none;stroke:#000000;stroke-width:1;stroke-linecap:butt;stroke-linejoin:round;stroke-miterlimit:19.1;stroke-dasharray:none;stroke-opacity:1"
         d="m 103.7392,128.51337 2.43362,-0.0303"
         id="path52" /><path
         style="opacity:1;fill:none;stroke:#000000;stroke-width:1;stroke-linecap:round;stroke-linejoin:round;stroke-miterlimit:19.1;stroke-dasharray:none;stroke-opacity:1"
         d="m 101.91655,137.51017 -0.0468,3.88209"
         id="path53" /><path
         style="fill:none;stroke:#000000;stroke-width:0.279449;stroke-linecap:round;stroke-linejoin:round;stroke-miterlimit:19.1;stroke-dasharray:none;stroke-opacity:1"
         d="m 95.88846,141.78437 -2.208902,-0.0131"
         id="path54-4" /><path
         style="opacity:1;fill:none;stroke:#000000;stroke-width:1;stroke-linecap:butt;stroke-linejoin:round;stroke-miterlimit:19.1;stroke-dasharray:none;stroke-opacity:1"
         d="m 87.483325,137.04148 -0.06615,4.02337"
         id="path55" /><path
         style="opacity:1;fill:none;stroke:#000000;stroke-width:1;stroke-linecap:round;stroke-linejoin:round;stroke-miterlimit:19.1;stroke-dasharray:none;stroke-opacity:1"
         d="m 94.784009,137.08922 v 1.21608"
         id="path56" /><path
         style="opacity:1;fill:#1a1a1a;stroke:#000000;stroke-width:1;stroke-linecap:butt;stroke-linejoin:round;stroke-miterlimit:19.1;stroke-dasharray:none;stroke-opacity:1"
         d="m 84.187251,121.88637 12.4022,5.01441"
         id="path82" /><path
         style="opacity:1;fill:none;fill-opacity:1;stroke:#000000;stroke-width:1;stroke-linecap:butt;stroke-linejoin:round;stroke-miterlimit:19.1;stroke-dasharray:none;stroke-opacity:1"
         d="m 120.01738,123.57206 -10.7576,2.66602 c 0,0 -1.49329,-2.96446 -2.82971,-3.81193 -1.67528,-1.06235 -3.85315,-1.07212 -5.83483,-1.171 -1.948383,-0.0972 -3.861031,0.73038 -5.811445,0.69129 -1.961328,-0.0393 -3.851118,-1.00259 -5.811443,-0.9286 -1.989976,0.0751 -4.133043,0.27611 -5.834827,1.31476 -1.483248,0.90527 -3.344209,3.99902 -3.344209,3.99902 l -10.336649,-2.75956 c 4.421014,-9.54739 11.099401,-13.19649 18.225243,-15.67643 0.07212,6.50041 2.442377,9.65061 6.856676,9.7233 4.4143,0.0727 6.718204,-4.79439 7.139654,-9.57785 9.50146,2.25774 14.52537,8.37307 18.33914,15.53098 z"
         id="path159" /><path
         style="font-weight:600;font-size:14.1111px;line-height:1.1;font-family:'Avenir Next';-inkscape-font-specification:'Avenir Next Semi-Bold';text-align:center;letter-spacing:-0.496308px;word-spacing:0px;text-anchor:middle;fill:#031f40;stroke-width:5.15847;stroke-linecap:round;stroke-miterlimit:19.1;paint-order:markers stroke fill"
         d="m 77.509708,160.93964 q -0.395111,-0.53622 -1.03011,-0.77611 -0.635,-0.254 -1.241777,-0.254 -0.776111,0 -1.41111,0.28223 -0.635,0.28222 -1.100666,0.77611 -0.451555,0.49388 -0.705555,1.15711 -0.239889,0.66322 -0.239889,1.43933 0,0.81844 0.239889,1.49578 0.239889,0.67733 0.677333,1.17122 0.451555,0.47977 1.072444,0.74788 0.620888,0.26812 1.396998,0.26812 0.804333,0 1.425222,-0.31045 0.620888,-0.32455 1.001888,-0.84666 l 1.425221,1.00188 q -0.663222,0.83256 -1.622777,1.29822 -0.959555,0.45156 -2.243665,0.45156 -1.171221,0 -2.158998,-0.381 -0.973666,-0.39511 -1.679221,-1.08655 -0.705555,-0.70556 -1.100666,-1.66511 -0.39511,-0.97367 -0.39511,-2.14489 0,-1.19945 0.409221,-2.159 0.423333,-0.97367 1.143,-1.651 0.733777,-0.67733 1.721554,-1.04422 0.987777,-0.36689 2.144887,-0.36689 0.479777,0 1.001888,0.0988 0.522111,0.0847 1.001888,0.28222 0.479778,0.18345 0.903111,0.46567 0.423333,0.28222 0.719666,0.67733 z m 2.283567,-2.34244 h 1.439332 v 3.72533 h -1.439332 z m 3.313683,0 h 3.259665 q 0.860777,0 1.552221,0.15522 0.691443,0.15523 1.185332,0.508 0.493889,0.35278 0.761999,0.90311 0.268111,0.55034 0.268111,1.32645 0,0.83255 -0.310444,1.397 -0.310444,0.56444 -0.846666,0.91722 -0.522111,0.33866 -1.227666,0.49389 -0.705555,0.15522 -1.495776,0.15522 h -1.368777 v 4.13455 h -1.777999 z m 3.019776,4.36033 q 0.437444,0 0.832555,-0.0564 0.395111,-0.0706 0.705555,-0.22578 0.310444,-0.16933 0.493888,-0.45156 0.183445,-0.28222 0.183445,-0.73377 0,-0.43745 -0.183445,-0.70556 -0.183444,-0.28222 -0.493888,-0.43744 -0.296333,-0.15522 -0.691444,-0.19756 -0.381,-0.0564 -0.790222,-0.0564 h -1.298221 v 2.86455 z m 7.024909,-2.80811 h -3.062109 v -1.55222 h 7.902216 v 1.55222 h -3.062108 v 8.43844 h -1.777999 z m 7.786927,-1.55222 h 1.53811 l 4.30389,9.99066 h -2.032 l -0.93134,-2.286 h -4.332104 l -0.90311,2.286 h -1.989665 z m 2.25778,6.18066 -1.53811,-4.06399 -1.56634,4.06399 z m 4.07568,-6.18066 h 1.778 v 9.99066 h -1.778 z m 3.48301,0 h 2.35655 l 4.64256,7.47888 h 0.0282 v -7.47888 h 1.778 v 9.99066 h -2.25778 l -4.74133,-7.71877 h -0.0282 v 7.71877 h -1.778 z"
         id="text162"
         aria-label="C'PTAIN" /><path
         style="font-weight:600;font-size:4.00916px;line-height:1.1;font-family:'Avenir Next';-inkscape-font-specification:'Avenir Next Semi-Bold';text-align:center;letter-spacing:-0.218682px;word-spacing:0px;text-anchor:middle;fill:#031f40;stroke-width:2.27291;stroke-linecap:round;stroke-miterlimit:19.1;paint-order:markers stroke fill"
         d="m 73.973167,171.16535 q -0.112256,-0.15234 -0.292669,-0.2205 -0.180412,-0.0722 -0.352806,-0.0722 -0.220503,0 -0.400916,0.0802 -0.180412,0.0802 -0.312714,0.2205 -0.128293,0.14032 -0.200458,0.32875 -0.06816,0.18843 -0.06816,0.40894 0,0.23253 0.06816,0.42497 0.06816,0.19244 0.19244,0.33276 0.128293,0.13631 0.304696,0.21248 0.176403,0.0762 0.396907,0.0762 0.228522,0 0.404925,-0.0882 0.176403,-0.0922 0.28465,-0.24055 l 0.404925,0.28465 q -0.18843,0.23654 -0.461053,0.36884 -0.272623,0.12829 -0.637457,0.12829 -0.33276,0 -0.613401,-0.10824 -0.276632,-0.11226 -0.47709,-0.30871 -0.200458,-0.20046 -0.312715,-0.47308 -0.112256,-0.27663 -0.112256,-0.60939 0,-0.34078 0.116266,-0.6134 0.120274,-0.27664 0.324742,-0.46908 0.208476,-0.19244 0.489117,-0.29667 0.280641,-0.10424 0.609392,-0.10424 0.136312,0 0.284651,0.0281 0.148339,0.0241 0.28465,0.0802 0.136312,0.0521 0.256586,0.1323 0.120275,0.0802 0.204467,0.19244 z m 0.506973,-0.85796 h 0.481099 v 3.03093 H 74.48014 Z m 2.603765,3.03093 h -0.457044 v -0.30871 h -0.008 q -0.06415,0.14433 -0.224513,0.25659 -0.156357,0.10825 -0.372852,0.10825 -0.18843,0 -0.324742,-0.0642 -0.132302,-0.0682 -0.220503,-0.1764 -0.08419,-0.10825 -0.124284,-0.24857 -0.04009,-0.14032 -0.04009,-0.28866 v -1.20275 h 0.481099 v 1.06644 q 0,0.0842 0.01203,0.1764 0.01203,0.0922 0.05212,0.16839 0.04009,0.0722 0.108247,0.12027 0.07216,0.0481 0.188431,0.0481 0.112256,0 0.196449,-0.0441 0.0882,-0.0481 0.14032,-0.12028 0.05613,-0.0722 0.08419,-0.16437 0.02806,-0.0962 0.02806,-0.19244 v -1.05842 h 0.481099 z m 1.413049,-1.41123 q -0.06415,-0.0842 -0.176403,-0.14433 -0.112257,-0.0641 -0.244559,-0.0641 -0.116266,0 -0.212486,0.0481 -0.09622,0.0481 -0.09622,0.16036 0,0.11226 0.104238,0.16037 0.108247,0.0441 0.312714,0.0922 0.108248,0.0241 0.216495,0.0642 0.112256,0.0401 0.200458,0.10824 0.09221,0.0642 0.148339,0.16438 0.05613,0.0962 0.05613,0.23654 0,0.1764 -0.06816,0.30069 -0.06415,0.12027 -0.176403,0.19645 -0.108247,0.0762 -0.256586,0.10824 -0.14433,0.0361 -0.300687,0.0361 -0.224513,0 -0.436998,-0.0802 -0.212486,-0.0842 -0.352806,-0.23654 l 0.316723,-0.29668 q 0.08018,0.10424 0.208477,0.1724 0.128293,0.0682 0.28465,0.0682 0.05212,0 0.104238,-0.012 0.05613,-0.012 0.100229,-0.0361 0.04811,-0.0281 0.07617,-0.0722 0.02806,-0.0441 0.02806,-0.10825 0,-0.12027 -0.112256,-0.17239 -0.108248,-0.0521 -0.328751,-0.10424 -0.108248,-0.024 -0.212486,-0.0601 -0.100229,-0.0401 -0.180412,-0.10023 -0.08018,-0.0641 -0.128293,-0.15635 -0.04811,-0.0922 -0.04811,-0.22853 0,-0.16036 0.06415,-0.27663 0.06816,-0.11626 0.176403,-0.18843 0.108248,-0.0762 0.244559,-0.11225 0.136312,-0.0361 0.280641,-0.0361 0.208477,0 0.404926,0.0722 0.200458,0.0722 0.316723,0.2205 z m 0.230345,-0.12829 v -0.38488 h 0.336769 v -0.55727 h 0.473081 v 0.55727 h 0.481099 v 0.38488 h -0.481099 v 0.89404 q 0,0.1283 0.0441,0.21249 0.04811,0.0842 0.208476,0.0842 0.04811,0 0.104238,-0.008 0.05613,-0.012 0.100229,-0.0321 l 0.01604,0.37686 q -0.06415,0.0241 -0.152348,0.0361 -0.0882,0.016 -0.168385,0.016 -0.19244,0 -0.312714,-0.0521 -0.120275,-0.0561 -0.19244,-0.14834 -0.06816,-0.0962 -0.09622,-0.21649 -0.02405,-0.12429 -0.02405,-0.26461 v -0.89805 z m 2.776161,0.38488 q 0,-0.0922 -0.02806,-0.1764 -0.02406,-0.0842 -0.08018,-0.14834 -0.05613,-0.0641 -0.14433,-0.10023 -0.08419,-0.0401 -0.200458,-0.0401 -0.216495,0 -0.368843,0.1323 -0.148339,0.12829 -0.164375,0.33276 z m 0.481099,0.21649 q 0,0.0321 0,0.0641 0,0.0321 -0.004,0.0642 h -1.463343 q 0.008,0.10424 0.05212,0.19244 0.04811,0.0842 0.124284,0.14834 0.07617,0.0601 0.172393,0.0962 0.09622,0.0361 0.200458,0.0361 0.180413,0 0.304697,-0.0642 0.124284,-0.0682 0.204467,-0.18442 l 0.320733,0.25659 q -0.284651,0.38488 -0.825887,0.38488 -0.224513,0 -0.412944,-0.0682 -0.18843,-0.0722 -0.328751,-0.20046 -0.136311,-0.12829 -0.216495,-0.31271 -0.07617,-0.18843 -0.07617,-0.42497 0,-0.23253 0.07617,-0.42096 0.08018,-0.19244 0.216495,-0.32475 0.136311,-0.13631 0.320733,-0.20847 0.18843,-0.0762 0.404925,-0.0762 0.200458,0 0.368843,0.0682 0.172394,0.0642 0.296678,0.19645 0.124284,0.12829 0.192439,0.32474 0.07216,0.19244 0.07216,0.45303 z m 0.246379,-0.98625 h 0.461053 v 0.32073 h 0.008 q 0.08018,-0.16838 0.224513,-0.27262 0.14433,-0.10424 0.33677,-0.10424 0.02806,0 0.06014,0.004 0.03207,0 0.05613,0.008 v 0.44101 q -0.04811,-0.012 -0.08419,-0.016 -0.03207,-0.004 -0.06415,-0.004 -0.164376,0 -0.264605,0.0601 -0.100229,0.0601 -0.156357,0.14433 -0.05613,0.0842 -0.07617,0.17239 -0.02005,0.0882 -0.02005,0.14032 v 1.03036 h -0.481099 z m 2.048316,-0.91409 h 0.926116 q 0.244559,0 0.441008,0.0441 0.196449,0.0441 0.336769,0.14433 0.140321,0.10023 0.216495,0.25659 0.07617,0.15636 0.07617,0.37686 0,0.23654 -0.0882,0.39691 -0.0882,0.16036 -0.240549,0.26059 -0.148339,0.0962 -0.348797,0.14032 -0.200458,0.0441 -0.424971,0.0441 h -0.388889 v 1.17469 h -0.505154 z m 0.85796,1.23883 q 0.124284,0 0.236541,-0.016 0.112256,-0.02 0.200458,-0.0642 0.0882,-0.0481 0.14032,-0.12829 0.05212,-0.0802 0.05212,-0.20848 0,-0.12428 -0.05212,-0.20046 -0.05212,-0.0802 -0.14032,-0.12428 -0.08419,-0.0441 -0.196449,-0.0561 -0.108247,-0.016 -0.224513,-0.016 h -0.368843 v 0.81386 z m 1.25669,-0.32474 h 0.481099 v 1.9244 h -0.481099 z m -0.06816,-0.65349 q 0,-0.11627 0.08419,-0.20046 0.0882,-0.0882 0.220504,-0.0882 0.132302,0 0.220504,0.0842 0.09221,0.0802 0.09221,0.20447 0,0.12428 -0.09221,0.20847 -0.0882,0.0802 -0.220504,0.0802 -0.132303,0 -0.220504,-0.0842 -0.08419,-0.0882 -0.08419,-0.20447 z m 2.271005,1.42325 q 0,-0.0922 -0.02806,-0.1764 -0.02406,-0.0842 -0.08018,-0.14834 -0.05613,-0.0641 -0.14433,-0.10023 -0.08419,-0.0401 -0.200458,-0.0401 -0.216495,0 -0.368843,0.1323 -0.148339,0.12829 -0.164375,0.33276 z m 0.481099,0.21649 q 0,0.0321 0,0.0641 0,0.0321 -0.004,0.0642 h -1.463343 q 0.008,0.10424 0.05212,0.19244 0.04811,0.0842 0.124284,0.14834 0.07617,0.0601 0.172394,0.0962 0.09622,0.0361 0.200458,0.0361 0.180412,0 0.304696,-0.0642 0.124284,-0.0682 0.204467,-0.18442 l 0.320733,0.25659 q -0.284651,0.38488 -0.825887,0.38488 -0.224513,0 -0.412944,-0.0682 -0.18843,-0.0722 -0.328751,-0.20046 -0.136311,-0.12829 -0.216494,-0.31271 -0.07617,-0.18843 -0.07617,-0.42497 0,-0.23253 0.07617,-0.42096 0.08018,-0.19244 0.216494,-0.32475 0.136312,-0.13631 0.320733,-0.20847 0.18843,-0.0762 0.404925,-0.0762 0.200458,0 0.368843,0.0682 0.172394,0.0642 0.296678,0.19645 0.124284,0.12829 0.192439,0.32474 0.07216,0.19244 0.07216,0.45303 z m 0.254396,-2.09278 h 0.481099 v 1.91638 h 0.01203 l 0.729667,-0.80985 h 0.617411 l -0.833906,0.86999 0.886025,1.05441 h -0.637457 l -0.76174,-0.98626 h -0.01203 v 0.98626 h -0.481099 z m 3.235024,0.63345 h -0.869987 v -0.44101 h 2.245129 v 0.44101 h -0.869988 v 2.39748 h -0.505154 z m 1.100334,0.47308 h 0.461053 v 0.32073 h 0.008 q 0.08018,-0.16838 0.224513,-0.27262 0.14433,-0.10424 0.336769,-0.10424 0.02806,0 0.06014,0.004 0.03207,0 0.05613,0.008 v 0.44101 q -0.04811,-0.012 -0.08419,-0.016 -0.03207,-0.004 -0.06415,-0.004 -0.164376,0 -0.264605,0.0601 -0.100229,0.0601 -0.156357,0.14433 -0.05613,0.0842 -0.07617,0.17239 -0.02005,0.0882 -0.02005,0.14032 v 1.03036 h -0.481099 z m 2.996666,1.9244 h -0.457044 v -0.30871 h -0.008 q -0.06415,0.14433 -0.224513,0.25659 -0.156358,0.10825 -0.372852,0.10825 -0.188431,0 -0.324742,-0.0642 -0.132303,-0.0682 -0.220504,-0.1764 -0.08419,-0.10825 -0.124284,-0.24857 -0.04009,-0.14032 -0.04009,-0.28866 v -1.20275 h 0.4811 v 1.06644 q 0,0.0842 0.01203,0.1764 0.01203,0.0922 0.05212,0.16839 0.04009,0.0722 0.108247,0.12027 0.07216,0.0481 0.188431,0.0481 0.112256,0 0.196449,-0.0441 0.0882,-0.0481 0.14032,-0.12028 0.05613,-0.0722 0.08419,-0.16437 0.02806,-0.0962 0.02806,-0.19244 v -1.05842 h 0.481099 z m 1.413048,-1.41123 q -0.06415,-0.0842 -0.176403,-0.14433 -0.112257,-0.0641 -0.244559,-0.0641 -0.116266,0 -0.212485,0.0481 -0.09622,0.0481 -0.09622,0.16036 0,0.11226 0.104238,0.16037 0.108247,0.0441 0.312714,0.0922 0.108248,0.0241 0.216495,0.0642 0.112257,0.0401 0.200458,0.10824 0.09221,0.0642 0.148339,0.16438 0.05613,0.0962 0.05613,0.23654 0,0.1764 -0.06816,0.30069 -0.06415,0.12027 -0.176403,0.19645 -0.108247,0.0762 -0.256586,0.10824 -0.14433,0.0361 -0.300687,0.0361 -0.224513,0 -0.436998,-0.0802 -0.212486,-0.0842 -0.352806,-0.23654 l 0.316723,-0.29668 q 0.08018,0.10424 0.208477,0.1724 0.128293,0.0682 0.28465,0.0682 0.05212,0 0.104238,-0.012 0.05613,-0.012 0.100229,-0.0361 0.04811,-0.0281 0.07617,-0.0722 0.02806,-0.0441 0.02806,-0.10825 0,-0.12027 -0.112256,-0.17239 -0.108247,-0.0521 -0.328751,-0.10424 -0.108248,-0.024 -0.212486,-0.0601 -0.100229,-0.0401 -0.180412,-0.10023 -0.08018,-0.0641 -0.128293,-0.15635 -0.04811,-0.0922 -0.04811,-0.22853 0,-0.16036 0.06415,-0.27663 0.06815,-0.11626 0.176403,-0.18843 0.108247,-0.0762 0.244558,-0.11225 0.136312,-0.0361 0.280642,-0.0361 0.208476,0 0.404925,0.0722 0.200458,0.0722 0.316723,0.2205 z m 0.230345,-0.12829 v -0.38488 h 0.336769 v -0.55727 h 0.473081 v 0.55727 h 0.481099 v 0.38488 h -0.481099 v 0.89404 q 0,0.1283 0.0441,0.21249 0.04811,0.0842 0.208476,0.0842 0.04811,0 0.104238,-0.008 0.05613,-0.012 0.100229,-0.0321 l 0.01604,0.37686 q -0.06415,0.0241 -0.152348,0.0361 -0.0882,0.016 -0.168385,0.016 -0.192439,0 -0.312714,-0.0521 -0.120275,-0.0561 -0.19244,-0.14834 -0.06816,-0.0962 -0.09622,-0.21649 -0.02406,-0.12429 -0.02406,-0.26461 v -0.89805 z m 2.776169,0.38488 q 0,-0.0922 -0.0281,-0.1764 -0.0241,-0.0842 -0.0802,-0.14834 -0.0561,-0.0641 -0.14433,-0.10023 -0.0842,-0.0401 -0.20046,-0.0401 -0.21649,0 -0.36884,0.1323 -0.14834,0.12829 -0.16438,0.33276 z m 0.4811,0.21649 q 0,0.0321 0,0.0641 0,0.0321 -0.004,0.0642 h -1.46335 q 0.008,0.10424 0.0521,0.19244 0.0481,0.0842 0.12429,0.14834 0.0762,0.0601 0.17238,0.0962 0.0962,0.0361 0.20047,0.0361 0.18041,0 0.3047,-0.0642 0.12428,-0.0682 0.20445,-0.18442 l 0.32075,0.25659 q -0.28465,0.38488 -0.8259,0.38488 -0.2245,0 -0.41294,-0.0682 -0.18844,-0.0722 -0.328751,-0.20046 -0.136311,-0.12829 -0.216495,-0.31271 -0.07617,-0.18843 -0.07617,-0.42497 0,-0.23253 0.07617,-0.42096 0.08018,-0.19244 0.216495,-0.32475 0.136311,-0.13631 0.320731,-0.20847 0.18843,-0.0762 0.40492,-0.0762 0.20047,0 0.36885,0.0682 0.17239,0.0642 0.29667,0.19645 0.12429,0.12829 0.19245,0.32474 0.0722,0.19244 0.0722,0.45303 z m 2.20284,0.93815 h -0.45704 v -0.28866 h -0.008 q -0.10023,0.16838 -0.28064,0.25658 -0.1764,0.0882 -0.38087,0.0882 -0.2205,0 -0.39692,-0.0802 -0.17238,-0.0842 -0.29667,-0.2205 -0.12028,-0.14032 -0.18843,-0.32474 -0.0641,-0.18843 -0.0641,-0.40092 0,-0.21248 0.0681,-0.39691 0.0682,-0.18442 0.19244,-0.32073 0.12429,-0.13631 0.29668,-0.21248 0.17239,-0.0802 0.37685,-0.0802 0.13231,0 0.23654,0.0321 0.10425,0.0281 0.18042,0.0722 0.0802,0.0441 0.13631,0.0962 0.0561,0.0521 0.0922,0.10023 h 0.012 v -1.35109 h 0.48109 z m -1.58361,-0.97022 q 0,0.11226 0.0321,0.22451 0.0361,0.11226 0.10424,0.20046 0.0682,0.0882 0.17239,0.14433 0.10424,0.0561 0.24456,0.0561 0.1323,0 0.23654,-0.0521 0.10424,-0.0561 0.1764,-0.14433 0.0762,-0.0882 0.11226,-0.19645 0.0401,-0.11225 0.0401,-0.22451 0,-0.11226 -0.0401,-0.22451 -0.0361,-0.11226 -0.11226,-0.20046 -0.0722,-0.0882 -0.1764,-0.14433 -0.10424,-0.0561 -0.23654,-0.0561 -0.14032,0 -0.24456,0.0561 -0.10424,0.0521 -0.17239,0.14032 -0.0682,0.0882 -0.10424,0.20046 -0.0321,0.10824 -0.0321,0.2205 z m 3.57581,-1.86827 h 0.43699 l 1.2228,2.83849 h -0.57732 l -0.26461,-0.64949 h -1.23081 l -0.25658,0.64949 h -0.5653 z m 0.64146,1.75601 -0.437,-1.15463 -0.44501,1.15463 z m 1.08028,-1.75601 h 0.50516 v 2.83849 h -0.50516 z m 1.69551,0 h 0.66953 l 1.31901,2.12486 h 0.008 v -2.12486 h 0.50516 v 2.83849 h -0.64147 l -1.34708,-2.19301 h -0.008 v 2.19301 h -0.50516 z m 2.77216,1.86827 q 0,-0.22852 0.0802,-0.41294 0.0842,-0.18843 0.22451,-0.32074 0.14032,-0.1323 0.33276,-0.20446 0.19244,-0.0722 0.40894,-0.0722 0.21649,0 0.40893,0.0722 0.19244,0.0722 0.33276,0.20446 0.14032,0.13231 0.22051,0.32074 0.0842,0.18442 0.0842,0.41294 0,0.22852 -0.0842,0.41695 -0.0802,0.18843 -0.22051,0.32475 -0.14032,0.1323 -0.33276,0.20847 -0.19244,0.0762 -0.40893,0.0762 -0.2165,0 -0.40894,-0.0762 -0.19244,-0.0762 -0.33276,-0.20847 -0.14032,-0.13632 -0.22451,-0.32475 -0.0802,-0.18843 -0.0802,-0.41695 z m 0.48911,0 q 0,0.11226 0.0321,0.22451 0.0361,0.11226 0.10424,0.20046 0.0682,0.0882 0.17239,0.14433 0.10424,0.0561 0.24857,0.0561 0.14433,0 0.24857,-0.0561 0.10423,-0.0561 0.17239,-0.14433 0.0682,-0.0882 0.10023,-0.20046 0.0361,-0.11225 0.0361,-0.22451 0,-0.11226 -0.0361,-0.2205 -0.0321,-0.11226 -0.10023,-0.20046 -0.0682,-0.0882 -0.17239,-0.14032 -0.10424,-0.0561 -0.24857,-0.0561 -0.14433,0 -0.24857,0.0561 -0.10424,0.0521 -0.17239,0.14032 -0.0682,0.0882 -0.10424,0.20046 -0.0321,0.10824 -0.0321,0.2205 z m 3.80652,0.97022 h -0.45704 v -0.28866 h -0.008 q -0.10023,0.16838 -0.28064,0.25658 -0.1764,0.0882 -0.38087,0.0882 -0.22051,0 -0.39691,-0.0802 -0.17239,-0.0842 -0.29668,-0.2205 -0.12027,-0.14032 -0.18843,-0.32474 -0.0641,-0.18843 -0.0641,-0.40092 0,-0.21248 0.0682,-0.39691 0.0682,-0.18442 0.19244,-0.32073 0.12429,-0.13631 0.29668,-0.21248 0.17239,-0.0802 0.37686,-0.0802 0.1323,0 0.23654,0.0321 0.10424,0.0281 0.18041,0.0722 0.0802,0.0441 0.13632,0.0962 0.0561,0.0521 0.0922,0.10023 h 0.012 v -1.35109 h 0.4811 z m -1.58362,-0.97022 q 0,0.11226 0.0321,0.22451 0.0361,0.11226 0.10424,0.20046 0.0682,0.0882 0.17239,0.14433 0.10424,0.0561 0.24456,0.0561 0.1323,0 0.23654,-0.0521 0.10424,-0.0561 0.1764,-0.14433 0.0762,-0.0882 0.11226,-0.19645 0.0401,-0.11225 0.0401,-0.22451 0,-0.11226 -0.0401,-0.22451 -0.0361,-0.11226 -0.11226,-0.20046 -0.0722,-0.0882 -0.1764,-0.14433 -0.10424,-0.0561 -0.23654,-0.0561 -0.14032,0 -0.24456,0.0561 -0.10424,0.0521 -0.17239,0.14032 -0.0682,0.0882 -0.10424,0.20046 -0.0321,0.10824 -0.0321,0.2205 z m 3.30538,-0.18442 q 0,-0.0922 -0.0281,-0.1764 -0.0241,-0.0842 -0.0802,-0.14834 -0.0561,-0.0641 -0.14433,-0.10023 -0.0842,-0.0401 -0.20046,-0.0401 -0.21649,0 -0.36884,0.1323 -0.14834,0.12829 -0.16438,0.33276 z m 0.4811,0.21649 q 0,0.0321 0,0.0641 0,0.0321 -0.004,0.0642 h -1.46335 q 0.008,0.10424 0.0521,0.19244 0.0481,0.0842 0.12429,0.14834 0.0762,0.0601 0.17239,0.0962 0.0962,0.0361 0.20046,0.0361 0.18041,0 0.30469,-0.0642 0.12429,-0.0682 0.20447,-0.18442 l 0.32073,0.25659 q -0.28465,0.38488 -0.82588,0.38488 -0.22452,0 -0.41295,-0.0682 -0.18843,-0.0722 -0.32875,-0.20046 -0.13631,-0.12829 -0.21649,-0.31271 -0.0762,-0.18843 -0.0762,-0.42497 0,-0.23253 0.0762,-0.42096 0.0802,-0.19244 0.21649,-0.32475 0.13631,-0.13631 0.32074,-0.20847 0.18843,-0.0762 0.40492,-0.0762 0.20046,0 0.36884,0.0682 0.1724,0.0642 0.29668,0.19645 0.12428,0.12829 0.19244,0.32474 0.0722,0.19244 0.0722,0.45303 z"
         id="text159"
         aria-label="Cluster Piek Trusted AI Node" /><path
         style="display:inline;fill:none;stroke:#000000;stroke-width:1;stroke-linecap:round;stroke-linejoin:round;stroke-miterlimit:19.1;stroke-dasharray:none;stroke-opacity:1"
         d="m 98.736257,140.02553 h -6.318659 c -0.562404,0 -1.585837,-0.57598 -1.585837,-0.57598"
         id="path54"
         sodipodi:nodetypes="csc" /><path
         style="opacity:0.513021;mix-blend-mode:normal;fill:url(#linearGradient10);fill-opacity:1;stroke:none;stroke-width:1;stroke-linecap:butt;stroke-linejoin:round;stroke-miterlimit:19.1;stroke-dasharray:none;stroke-opacity:1;filter:url(#filter9)"
         d="m 109.25978,126.23808 c 0,0 -1.49329,-2.96446 -2.82971,-3.81193 -1.67528,-1.06235 -3.85315,-1.07212 -5.83483,-1.171 -1.948383,-0.0972 -3.861031,0.73038 -5.811445,0.69129 -1.961328,-0.0393 -3.851118,-1.00259 -5.811443,-0.9286 -1.989976,0.0751 -4.133043,0.27611 -5.834827,1.31476 -1.483248,0.90527 -3.344209,3.99902 -3.344209,3.99902 l -10.336649,-2.75956 c 1.574288,-3.08907 6.115141,0.36627 11.256608,0.88833 4.091752,-5.96554 9.698841,-2.74064 14.11314,-2.66795 3.838642,-1.58232 12.916735,-2.46466 15.128035,2.04955 3.56785,0.13343 10.72409,-2.12172 10.06293,-0.26994"
         id="path2"
         sodipodi:nodetypes="cscccscccccc" /><path
         style="opacity:1;fill:none;fill-opacity:1;stroke:#000000;stroke-width:1;stroke-linecap:butt;stroke-linejoin:round;stroke-miterlimit:19.1;stroke-dasharray:none;stroke-opacity:1"
         d="m 109.25978,126.23808 c 0,0 -1.49329,-2.96446 -2.82971,-3.81193 -1.67528,-1.06235 -3.85315,-1.07212 -5.83483,-1.171 -1.948383,-0.0972 -3.861031,0.73038 -5.811445,0.69129 -1.961328,-0.0393 -3.851118,-1.00259 -5.811443,-0.9286 -1.989976,0.0751 -4.133043,0.27611 -5.834827,1.31476 -1.483248,0.90527 -3.344209,3.99902 -3.344209,3.99902 l -10.336649,-2.75956 c 4.421014,-9.54739 11.099401,-13.19649 18.225243,-15.67643 0.07212,6.50041 2.442377,9.65061 6.856676,9.7233 4.4143,0.0727 6.718204,-4.79439 7.139654,-9.57785 9.50146,2.25774 14.52537,8.37307 18.33914,15.53098"
         id="path9" /></g></g></svg>
